<svg width="20" height="25" viewBox="0 0 20 25" fill="none" xmlns="http://www.w3.org/2000/svg">
<path fill-rule="evenodd" clip-rule="evenodd" d="M19.7746 6.37908L13.6209 0.225385C13.4773 0.0816923 13.2812 0 13.0769 0H2.30769C1.03523 0 0 1.03523 0 2.30769V22.2821C0 23.5545 1.03523 24.5897 2.30769 24.5897H17.6923C18.9648 24.5897 20 23.5545 20 22.2821V6.92308C20 6.71333 19.9119 6.51636 19.7746 6.37908ZM13.8462 2.62631L17.3737 6.15385H14.6154C14.1912 6.15385 13.8462 5.80877 13.8462 5.38462V2.62631ZM17.6923 23.0513H2.30769C1.88354 23.0513 1.53846 22.7062 1.53846 22.2821V2.30769C1.53846 1.88354 1.88354 1.53846 2.30769 1.53846H12.3077V5.38462C12.3077 6.65708 13.3429 7.69231 14.6154 7.69231H18.4615V22.2821C18.4615 22.7062 18.1165 23.0513 17.6923 23.0513ZM14.6153 9.20513H5.38458C4.95976 9.20513 4.61535 9.54954 4.61535 9.97436C4.61535 10.3992 4.95976 10.7436 5.38458 10.7436H14.6153C15.0402 10.7436 15.3846 10.3992 15.3846 9.97436C15.3846 9.54954 15.0402 9.20513 14.6153 9.20513ZM5.38458 12.2821H14.6153C15.0402 12.2821 15.3846 12.6265 15.3846 13.0513C15.3846 13.4761 15.0402 13.8205 14.6153 13.8205H5.38458C4.95976 13.8205 4.61535 13.4761 4.61535 13.0513C4.61535 12.6265 4.95976 12.2821 5.38458 12.2821ZM14.6153 15.359H5.38458C4.95976 15.359 4.61535 15.7034 4.61535 16.1282C4.61535 16.553 4.95976 16.8974 5.38458 16.8974H14.6153C15.0402 16.8974 15.3846 16.553 15.3846 16.1282C15.3846 15.7034 15.0402 15.359 14.6153 15.359ZM5.38458 18.4359H11.5384C11.9632 18.4359 12.3077 18.7803 12.3077 19.2051C12.3077 19.63 11.9632 19.9744 11.5384 19.9744H5.38458C4.95976 19.9744 4.61535 19.63 4.61535 19.2051C4.61535 18.7803 4.95976 18.4359 5.38458 18.4359Z" fill="black"/>
</svg>
