<svg width="22" height="22" viewBox="0 0 22 22" fill="none" xmlns="http://www.w3.org/2000/svg">
<path fill-rule="evenodd" clip-rule="evenodd" d="M2.75 0H16.5C18.0125 0 19.25 1.2375 19.25 2.75V9.44167C18.6817 9.1575 18.0217 9.09333 17.4167 9.2675V4.58333H1.83333V14.6667C1.83333 15.1708 2.24583 15.5833 2.75 15.5833H11.7425C11.4583 16.1608 11.2567 16.775 11.1375 17.4167H2.75C1.2375 17.4167 0 16.1792 0 14.6667V2.75C0 1.2375 1.2375 0 2.75 0ZM18.5286 11.1467L21.7369 13.6675C21.9038 13.7977 22 13.9975 22 14.2083C22 14.4192 21.9038 14.619 21.7369 14.7492L18.5286 17.27C18.4058 17.3672 18.2554 17.4167 18.1042 17.4167C18.0015 17.4167 17.8988 17.3937 17.8035 17.347C17.567 17.2324 17.4167 16.9922 17.4167 16.7292V15.2552C15.84 15.6649 14.6667 17.0885 14.6667 18.7917V21.0833C14.6667 21.5893 14.256 22 13.75 22C13.244 22 12.8333 21.5893 12.8333 21.0833V18.7917C12.8333 16.071 14.8197 13.8123 17.4167 13.3742V11.6875C17.4167 11.4244 17.567 11.1842 17.8035 11.0697C18.0391 10.9542 18.3214 10.9844 18.5286 11.1467Z" fill="black"/>
</svg>
