<svg width="24" height="24" viewBox="0 0 24 24" fill="none" xmlns="http://www.w3.org/2000/svg">
<path fill-rule="evenodd" clip-rule="evenodd" d="M1.74994 8.00006H9.24994C10.2151 8.00006 11.0001 7.21509 11.0001 6.24994V1.74994C11.0001 0.784973 10.2151 0 9.24994 0H1.74994C0.784973 0 0 0.784973 0 1.74994V6.24994C0 7.21509 0.784973 8.00006 1.74994 8.00006ZM1.5 1.74994C1.5 1.61206 1.61206 1.5 1.74994 1.5H9.24994C9.388 1.5 9.50006 1.61206 9.50006 1.74994V6.24994C9.50006 6.388 9.388 6.50006 9.24994 6.50006H1.74994C1.61206 6.50006 1.5 6.388 1.5 6.24994V1.74994ZM1.74994 24H9.24994C10.2151 24 11.0001 23.215 11.0001 22.2501V11.7501C11.0001 10.7849 10.2151 9.99994 9.24994 9.99994H1.74994C0.784973 9.99994 0 10.7849 0 11.7501V22.2501C0 23.215 0.784973 24 1.74994 24ZM1.5 11.7501C1.5 11.612 1.61206 11.4999 1.74994 11.4999H9.24994C9.388 11.4999 9.50006 11.612 9.50006 11.7501V22.2501C9.50006 22.3879 9.388 22.5 9.24994 22.5H1.74994C1.61206 22.5 1.5 22.3879 1.5 22.2501V11.7501ZM22.2501 24H14.7501C13.7849 24 12.9999 23.215 12.9999 22.2501V17.7501C12.9999 16.7849 13.7849 15.9999 14.7501 15.9999H22.2501C23.215 15.9999 24 16.7849 24 17.7501V22.2501C24 23.215 23.215 24 22.2501 24ZM14.7501 17.4999C14.612 17.4999 14.4999 17.612 14.4999 17.7501V22.2501C14.4999 22.3879 14.612 22.5 14.7501 22.5H22.2501C22.3879 22.5 22.5 22.3879 22.5 22.2501V17.7501C22.5 17.612 22.3879 17.4999 22.2501 17.4999H14.7501ZM14.7501 14.0001H22.2501C23.215 14.0001 24 13.2151 24 12.2499V1.74994C24 0.784973 23.215 0 22.2501 0H14.7501C13.7849 0 12.9999 0.784973 12.9999 1.74994V12.2499C12.9999 13.2151 13.7849 14.0001 14.7501 14.0001ZM14.4999 1.74994C14.4999 1.61206 14.612 1.5 14.7501 1.5H22.2501C22.3879 1.5 22.5 1.61206 22.5 1.74994V12.2499C22.5 12.388 22.3879 12.5001 22.2501 12.5001H14.7501C14.612 12.5001 14.4999 12.388 14.4999 12.2499V1.74994Z" fill="black"/>
</svg>
