<svg width="24" height="24" viewBox="0 0 24 24" fill="none" xmlns="http://www.w3.org/2000/svg">
<path fill-rule="evenodd" clip-rule="evenodd" d="M14.1094 10.5938C14.1094 10.9821 13.7946 11.2969 13.4062 11.2969H10.5937C10.2054 11.2969 9.89061 10.9821 9.89061 10.5938V5.625H9.18749C8.92818 5.625 8.68991 5.48227 8.56757 5.25366C8.44522 5.02505 8.45863 4.74764 8.60244 4.53188L11.4149 0.313125C11.5453 0.117469 11.7649 0 12 0C12.2351 0 12.4546 0.117469 12.585 0.313125L15.3975 4.53188C15.5413 4.74764 15.5548 5.02505 15.4324 5.25366C15.3101 5.48227 15.0718 5.625 14.8125 5.625H14.1094V10.5938ZM13.4987 4.21875L12 1.97072L10.5013 4.21875H10.5937C10.9821 4.21875 11.2969 4.53356 11.2969 4.92188V9.89062H12.7031V4.92188C12.7031 4.53356 13.0179 4.21875 13.4062 4.21875H13.4987ZM20.4844 24H3.51561C3.1273 24 2.81249 23.6852 2.81249 23.2969V18.3281H0.703114C0.443801 18.3281 0.205535 18.1854 0.0831917 17.9568C-0.0391521 17.7282 -0.0257458 17.4508 0.118067 17.235L2.93057 13.0162C3.06097 12.8206 3.28054 12.7031 3.51561 12.7031H20.4844C20.7194 12.7031 20.939 12.8206 21.0694 13.0162L23.8819 17.235C24.0257 17.4508 24.0391 17.7282 23.9168 17.9568C23.7944 18.1854 23.5562 18.3281 23.2969 18.3281H21.1875V23.2969C21.1875 23.6852 20.8727 24 20.4844 24ZM9.18749 18.3281H4.21874V22.5938H11.2969V15.7285L9.77254 18.015C9.64213 18.2107 9.42257 18.3281 9.18749 18.3281ZM12.7031 22.5938H19.7812V18.3281H14.8125C14.5774 18.3281 14.3579 18.2106 14.2274 18.015L12.7031 15.7285V22.5938ZM21.9831 16.9219L20.1081 14.1094H13.3138L15.1888 16.9219H21.9831ZM10.6862 14.1094H3.89193L2.01693 16.9219H8.81118L10.6862 14.1094ZM3.56249 11.2969H6.37499C6.7633 11.2969 7.07811 10.9821 7.07811 10.5938V8.4375H7.78124C8.04055 8.4375 8.27882 8.29477 8.40116 8.06616C8.5235 7.83755 8.5101 7.56009 8.36629 7.34437L5.55379 3.12563C5.42338 2.92997 5.20382 2.8125 4.96874 2.8125C4.73366 2.8125 4.5141 2.92997 4.38369 3.12563L1.57119 7.34437C1.42738 7.56014 1.41397 7.83755 1.53632 8.06616C1.65866 8.29477 1.89693 8.4375 2.15624 8.4375H2.85936V10.5938C2.85936 10.9821 3.17418 11.2969 3.56249 11.2969ZM4.96874 4.78322L6.46743 7.03125H6.37499C5.98668 7.03125 5.67186 7.34606 5.67186 7.73438V9.89062H4.26561V7.73438C4.26561 7.34606 3.9508 7.03125 3.56249 7.03125H3.47005L4.96874 4.78322ZM16.2187 8.4375C15.9594 8.4375 15.7212 8.29477 15.5988 8.06616C15.4765 7.83755 15.4899 7.56009 15.6337 7.34437L18.4462 3.12563C18.5766 2.92997 18.7962 2.8125 19.0312 2.8125C19.2663 2.8125 19.4859 2.92997 19.6163 3.12563L22.4288 7.34437C22.5726 7.56009 22.586 7.83755 22.4637 8.06616C22.3413 8.29477 22.1031 8.4375 21.8437 8.4375H21.1406V10.5938C21.1406 10.9821 20.8258 11.2969 20.4375 11.2969H17.625C17.2367 11.2969 16.9219 10.9821 16.9219 10.5938V8.4375H16.2187ZM20.5299 7.03125L19.0312 4.78322L17.5326 7.03125H17.625C18.0133 7.03125 18.3281 7.34606 18.3281 7.73438V9.89062H19.7344V7.73438C19.7344 7.34606 20.0492 7.03125 20.4375 7.03125H20.5299Z" fill="black"/>
</svg>
