<svg width="24" height="24" viewBox="0 0 24 24" fill="none" xmlns="http://www.w3.org/2000/svg">
<path fill-rule="evenodd" clip-rule="evenodd" d="M13.605 19.3981C13.8378 19.1653 14.1535 19.0345 14.4827 19.0345C14.812 19.0345 15.1277 19.1653 15.3605 19.3981C15.5933 19.6309 15.7241 19.9466 15.7241 20.2758V21.931C15.7241 22.2027 15.6706 22.4718 15.5666 22.7228C15.4627 22.9738 15.3103 23.2019 15.1181 23.394C14.926 23.5861 14.6979 23.7385 14.4469 23.8425C14.1959 23.9465 13.9269 24 13.6552 24H2.06896C1.52024 24 0.993991 23.782 0.605986 23.394C0.217979 23.006 0 22.4797 0 21.931V2.06896C0 1.52024 0.217979 0.993991 0.605986 0.605986C0.993991 0.217979 1.52024 0 2.06896 0H13.6552C13.9269 0 14.1959 0.0535153 14.4469 0.157491C14.6979 0.261466 14.926 0.413864 15.1181 0.605986C15.3103 0.798107 15.4627 1.02619 15.5666 1.27721C15.6706 1.52822 15.7241 1.79726 15.7241 2.06896V3.72414C15.7241 4.05337 15.5933 4.36912 15.3605 4.60192C15.1277 4.83473 14.812 4.96551 14.4827 4.96551C14.1535 4.96551 13.8378 4.83473 13.605 4.60192C13.3722 4.36912 13.2414 4.05337 13.2414 3.72414V2.48276H2.48276V21.5172H13.2414V20.2758C13.2414 19.9466 13.3722 19.6309 13.605 19.3981ZM18.9549 6.44068L23.6364 11.1222C23.8692 11.355 24 11.6707 24 12C24 12.3292 23.8692 12.6449 23.6364 12.8777L18.9549 17.5593C18.7221 17.7921 18.4063 17.9229 18.0771 17.9229C17.7478 17.9229 17.4321 17.7921 17.1993 17.5593C16.9665 17.3265 16.8357 17.0108 16.8357 16.6815C16.8357 16.3523 16.9664 16.0365 17.1992 15.8037L19.7617 13.2414H6.20689C5.87766 13.2414 5.56191 13.1106 5.3291 12.8778C5.0963 12.645 4.96551 12.3292 4.96551 12C4.96551 11.6708 5.0963 11.355 5.3291 11.1222C5.56191 10.8894 5.87766 10.7586 6.20689 10.7586H19.7617L17.1992 8.19625C16.9664 7.96345 16.8357 7.6477 16.8357 7.31847C16.8357 6.98923 16.9664 6.67349 17.1992 6.44068C17.3145 6.3254 17.4514 6.23396 17.602 6.17157C17.7526 6.10918 17.914 6.07707 18.0771 6.07707C18.2401 6.07707 18.4015 6.10918 18.5521 6.17157C18.7027 6.23396 18.8396 6.3254 18.9549 6.44068Z" fill="black"/>
</svg>
