<svg width="50" height="43" viewBox="0 0 50 43" fill="none" xmlns="http://www.w3.org/2000/svg">
<path fill-rule="evenodd" clip-rule="evenodd" d="M49.0531 4.71548L38.1156 0.121734C37.7188 -0.0405781 37.2781 -0.0405781 36.8812 0.121734L25.9438 4.71548C25.3719 4.95742 25 5.51173 25 6.12423V12.2492C25 20.6742 28.1781 25.5987 36.7219 30.4221C36.9625 30.5569 37.2313 30.6242 37.5 30.6242C37.7687 30.6242 38.0375 30.5569 38.2781 30.4221C46.8219 25.6109 50 20.6864 50 12.2492V6.12423C50 5.51173 49.6281 4.95742 49.0531 4.71548ZM46.875 12.2492C46.875 19.3205 44.4875 23.213 37.5 27.3167C30.5125 23.2038 28.125 19.3114 28.125 12.2492V7.13486L37.5 3.19648L46.875 7.13486V12.2492ZM46.875 29.093C46.875 28.2477 47.575 27.5617 48.4375 27.5617C49.3 27.5617 50 28.2477 50 29.093V39.8117C50 41.5022 48.6 42.8742 46.875 42.8742H3.125C1.4 42.8742 0 41.5022 0 39.8117V12.2492C0 10.5587 1.4 9.18673 3.125 9.18673H20.3125C21.175 9.18673 21.875 9.87273 21.875 10.718C21.875 11.5632 21.175 12.2492 20.3125 12.2492H3.125V18.3742H20.3125C21.175 18.3742 21.875 19.0602 21.875 19.9055C21.875 20.7507 21.175 21.4367 20.3125 21.4367H3.125V39.8117H46.875V29.093ZM7.8125 27.5617H14.0625C14.925 27.5617 15.625 28.2477 15.625 29.093C15.625 29.9382 14.925 30.6242 14.0625 30.6242H7.8125C6.95 30.6242 6.25 29.9382 6.25 29.093C6.25 28.2477 6.95 27.5617 7.8125 27.5617ZM40.9688 9.75942C41.5125 9.10098 42.4938 8.99992 43.1657 9.52054C43.8407 10.0504 43.9469 11.012 43.4094 11.6735L37.1594 19.3297C36.8594 19.6972 36.4094 19.9055 35.9375 19.9055H35.8719C35.3719 19.881 34.9157 19.6299 34.6375 19.2225L31.5125 14.6288C31.0344 13.9275 31.2313 12.975 31.9469 12.5065C32.6563 12.041 33.6282 12.2278 34.1125 12.9322L36.0563 15.7803L40.9688 9.75942Z" fill="black"/>
</svg>
