<svg width="24" height="21" viewBox="0 0 24 21" fill="none" xmlns="http://www.w3.org/2000/svg">
<path fill-rule="evenodd" clip-rule="evenodd" d="M23.5455 2.30963L18.2955 0.059625C18.105 -0.019875 17.8935 -0.019875 17.703 0.059625L12.453 2.30963C12.1785 2.42813 12 2.69963 12 2.99963V5.99963C12 10.1261 13.5255 12.5381 17.6265 14.9006C17.742 14.9666 17.871 14.9996 18 14.9996C18.129 14.9996 18.258 14.9666 18.3735 14.9006C22.4745 12.5441 24 10.1321 24 5.99963V2.99963C24 2.69963 23.8215 2.42813 23.5455 2.30963ZM22.5 5.99963C22.5 9.46313 21.354 11.3696 18 13.3796C14.646 11.3651 13.5 9.45863 13.5 5.99963V3.49463L18 1.56563L22.5 3.49463V5.99963ZM22.5 14.2496C22.5 13.8356 22.836 13.4996 23.25 13.4996C23.664 13.4996 24 13.8356 24 14.2496V19.4996C24 20.3276 23.328 20.9996 22.5 20.9996H1.5C0.672 20.9996 0 20.3276 0 19.4996V5.99963C0 5.17163 0.672 4.49963 1.5 4.49963H9.75C10.164 4.49963 10.5 4.83563 10.5 5.24963C10.5 5.66363 10.164 5.99963 9.75 5.99963H1.5V8.99963H9.75C10.164 8.99963 10.5 9.33563 10.5 9.74963C10.5 10.1636 10.164 10.4996 9.75 10.4996H1.5V19.4996H22.5V14.2496ZM3.75 13.4996H6.75C7.164 13.4996 7.5 13.8356 7.5 14.2496C7.5 14.6636 7.164 14.9996 6.75 14.9996H3.75C3.336 14.9996 3 14.6636 3 14.2496C3 13.8356 3.336 13.4996 3.75 13.4996ZM19.665 4.78012C19.926 4.45762 20.397 4.40812 20.7195 4.66312C21.0435 4.92262 21.0945 5.39362 20.8365 5.71762L17.8365 9.46762C17.6925 9.64762 17.4765 9.74962 17.25 9.74962H17.2185C16.9785 9.73763 16.7595 9.61462 16.626 9.41512L15.126 7.16512C14.8965 6.82162 14.991 6.35512 15.3345 6.12562C15.675 5.89762 16.1415 5.98912 16.374 6.33412L17.307 7.72912L19.665 4.78012Z" fill="black"/>
</svg>
