<svg width="49" height="52" viewBox="0 0 49 52" fill="none" xmlns="http://www.w3.org/2000/svg">
<path fill-rule="evenodd" clip-rule="evenodd" d="M3.39141 49.6123H24.2338C24.6473 49.6123 24.9824 49.9475 24.9824 50.3611C24.9824 50.7747 24.6473 51.1098 24.2338 51.1098H3.39141C1.52131 51.1098 0 49.5884 0 47.7185V3.39131C0 1.52131 1.52141 0 3.39141 0H28.1227C28.3212 0 28.5117 0.0788606 28.6522 0.219213L40.3066 11.8736C40.4469 12.0142 40.5258 12.2045 40.5258 12.4031V18.2617C40.5258 18.6753 40.1907 19.0104 39.7771 19.0104C39.3635 19.0104 39.0284 18.6753 39.0284 18.2617V13.1518H30.1194C28.6055 13.1518 27.374 11.9201 27.374 10.4063V1.49735H3.39141C2.34705 1.49735 1.49735 2.34695 1.49735 3.39131V47.7184C1.49735 48.7627 2.34705 49.6123 3.39141 49.6123ZM28.8714 2.55608V10.4063C28.8714 11.0946 29.4312 11.6544 30.1194 11.6544H37.9697L28.8714 2.55608ZM20.6761 6.72551H5.59002C5.17645 6.72551 4.84135 7.06062 4.84135 7.47419C4.84135 7.88776 5.17645 8.22287 5.59002 8.22287H20.6761C21.0896 8.22287 21.4247 7.88776 21.4247 7.47419C21.4247 7.06062 21.0896 6.72551 20.6761 6.72551ZM29.0352 22.4939H42.9983V23.8913H29.0352C28.6499 23.8913 28.3365 23.5778 28.3365 23.1926C28.3365 22.8074 28.65 22.4939 29.0352 22.4939ZM5.59002 11.6544H20.6761C21.0896 11.6544 21.4247 11.9895 21.4247 12.4031C21.4247 12.8166 21.0896 13.1518 20.6761 13.1518H5.59002C5.17645 13.1518 4.84135 12.8166 4.84135 12.4031C4.84135 11.9895 5.17645 11.6544 5.59002 11.6544ZM46.804 46.7176H46.4334V43.4571C46.4334 40.6565 44.8846 38.1244 42.3915 36.8489L40.8362 36.0532L42.3915 35.2574C44.8847 33.9818 46.4334 31.4496 46.4334 28.6492V25.3886H46.804C48.0148 25.3886 49 24.4035 49 23.1926C49 21.9818 48.0148 20.9966 46.804 20.9966H29.0352C27.8243 20.9966 26.8392 21.9818 26.8392 23.1926C26.8392 24.4035 27.8243 25.3886 29.0352 25.3886H29.4057V28.6492C29.4057 31.4497 30.9546 33.9818 33.4477 35.2574L35.0028 36.0531L33.4477 36.8489C30.9545 38.1244 29.4057 40.6566 29.4057 43.457V46.7176H29.0352C27.8243 46.7176 26.8392 47.7028 26.8392 48.9137C26.8392 50.1245 27.8243 51.1097 29.0352 51.1097H46.804C48.0148 51.1097 49 50.1245 49 48.9137C49 47.7028 48.0147 46.7176 46.804 46.7176ZM44.9361 25.3886V28.6492C44.9361 29.4548 44.7755 30.2328 44.4769 30.9459H31.3623C31.0637 30.2328 30.9031 29.4549 30.9031 28.6492V25.3886H44.9361ZM34.1297 38.1818L35.8851 37.2837C36.1081 37.1696 36.2906 37.0015 36.4199 36.7998H39.4191C39.5485 37.0015 39.731 37.1696 39.954 37.2837L41.7095 38.1818C43.0378 38.8614 44.0303 39.9879 44.5436 41.3267H31.2956C31.8089 39.9879 32.8013 38.8615 34.1297 38.1818Z" fill="black"/>
</svg>
