<svg width="24" height="30" viewBox="0 0 24 30" fill="none" xmlns="http://www.w3.org/2000/svg">
<path fill-rule="evenodd" clip-rule="evenodd" d="M0.938803 0H23.0611C23.5797 0 23.9999 0.420333 24 0.938803V25.3403C24 25.5893 23.9011 25.8281 23.725 26.0042L20.9597 28.7695C20.7763 28.9529 20.5361 29.0445 20.2958 29.0445C20.0555 29.0445 19.8153 28.9529 19.632 28.7695L17.5305 26.6681L15.4291 28.7695C15.253 28.9456 15.0143 29.0445 14.7652 29.0445C14.5163 29.0445 14.2775 28.9456 14.1014 28.7695L12 26.6681L9.89861 28.7695C9.72256 28.9457 9.48373 29.0445 9.23476 29.0445C8.98572 29.0445 8.74695 28.9456 8.5709 28.7695L6.46948 26.6681L4.368 28.7695C4.00137 29.1362 3.40692 29.1362 3.04035 28.7695L0.275007 26.0042C0.0989502 25.8281 0 25.5893 0 25.3403V0.938803C0 0.420333 0.420333 0 0.938803 0ZM18.1943 24.6765L20.2958 26.778L22.1223 24.9515V1.87761H1.87748V24.9515L3.70402 26.778L5.8055 24.6765C5.98155 24.5004 6.22032 24.4015 6.46929 24.4015C6.71833 24.4015 6.95709 24.5005 7.13315 24.6765L9.23457 26.778L11.336 24.6765C11.7027 24.3099 12.2971 24.3099 12.6637 24.6765L14.7652 26.778L16.8666 24.6765C17.0427 24.5005 17.2814 24.4015 17.5305 24.4015C17.7794 24.4015 18.0183 24.5005 18.1943 24.6765ZM12.6704 9.06116H11.3295C10.7383 9.06116 10.2572 8.58012 10.2572 7.9888C10.2572 7.39754 10.7383 6.9165 11.3295 6.9165H14.011C14.5295 6.9165 14.9498 6.49617 14.9498 5.9777C14.9498 5.45923 14.5295 5.03889 14.011 5.03889H12.9386V3.96666C12.9386 3.44819 12.5183 3.02785 11.9998 3.02785C11.4814 3.02785 11.061 3.44819 11.061 3.96666V5.05172C9.5599 5.18785 8.37963 6.45286 8.37963 7.98886C8.37963 9.6155 9.70297 10.9388 11.3295 10.9388H12.6704C13.2617 10.9388 13.7427 11.4199 13.7427 12.0111C13.7427 12.6024 13.2617 13.0834 12.6704 13.0834H9.98874C9.47027 13.0834 9.04994 13.5038 9.04994 14.0222C9.04994 14.5407 9.47027 14.961 9.98874 14.961H11.061V16.0333C11.061 16.5518 11.4814 16.9721 11.9998 16.9721C12.5183 16.9721 12.9386 16.5518 12.9386 16.0333V14.9483C14.4399 14.8122 15.6203 13.5472 15.6203 12.0111C15.6203 10.3845 14.297 9.06116 12.6704 9.06116ZM17.0278 20.1224H6.97218C6.45371 20.1224 6.03338 20.5427 6.03338 21.0612C6.03338 21.5797 6.45371 22 6.97218 22H17.0278C17.5462 22 17.9666 21.5797 17.9666 21.0612C17.9666 20.5427 17.5462 20.1224 17.0278 20.1224Z" fill="black"/>
</svg>
