<svg width="24" height="24" viewBox="0 0 24 24" fill="none" xmlns="http://www.w3.org/2000/svg">
<path d="M23.3005 22.5933H23.2127L21.9076 11.2163C23.7673 9.96028 22.9041 7.03198 20.6297 7.01355C19.269 7.00417 18.1813 8.22845 18.3503 9.57839L14.766 12.3967L12.0914 9.26199C12.9987 7.76741 11.8732 5.78271 10.1147 5.79997C8.36413 5.78271 7.23672 7.75268 8.12969 9.24731L1.40639 16.7035V11.8506H3.08346C4.01646 11.8135 4.01576 10.4808 3.08346 10.444H1.40639V7.56607H2.46039C3.39339 7.52889 3.39268 6.19626 2.46039 6.15945H1.40639V3.28146H3.08346C4.01646 3.24427 4.01576 1.91164 3.08346 1.87483H1.40639V0.699601C1.36922 -0.233552 0.0368006 -0.232849 0 0.699601V23.2967C0 23.6851 0.314844 24 0.703195 24H22.5837C22.5843 24 22.5849 24 22.5855 24H23.3005C24.2335 23.9628 24.2328 22.6301 23.3005 22.5933ZM20.6297 8.42017C21.1201 8.42017 21.5191 8.81923 21.5191 9.30972C21.4703 10.4897 19.789 10.4894 19.7404 9.30972C19.7404 8.81923 20.1393 8.42017 20.6297 8.42017ZM10.1148 7.20659C10.6052 7.20659 11.0041 7.6056 11.0041 8.09609C10.9553 9.2761 9.27402 9.27577 9.22541 8.09609C9.22541 7.6056 9.62435 7.20659 10.1148 7.20659ZM1.40639 18.8038L9.17389 10.1897C9.73616 10.4547 10.4754 10.4577 11.0401 10.1967L14.1347 13.8237C14.3807 14.112 14.8094 14.1523 15.1043 13.9201L18.9628 10.886C19.3616 11.3076 19.9177 11.5786 20.5364 11.6035L21.7971 22.5934H1.40639V18.8038Z" fill="black"/>
</svg>
