<svg width="24" height="27" viewBox="0 0 24 27" fill="none" xmlns="http://www.w3.org/2000/svg">
<path fill-rule="evenodd" clip-rule="evenodd" d="M12.0001 0C15.2053 0 18.2187 1.24825 20.4853 3.51471C22.7517 5.78117 24 8.79451 24 11.9999C24 15.2052 22.7519 18.2188 20.4853 20.4851C18.2187 22.7517 15.2053 24 12.0001 24C10.9842 24 9.97502 23.8724 8.99694 23.6201L1.62219 26.8958C1.55296 26.9265 1.47929 26.9416 1.40628 26.9416C1.28443 26.9416 1.16373 26.8999 1.06639 26.8191C0.910826 26.6897 0.841926 26.4837 0.888627 26.2869L2.52775 19.3669C0.895698 17.27 0 14.6646 0 11.9999C0 8.79451 1.24825 5.78117 3.51488 3.51471C5.78117 1.24825 8.79468 0 12.0001 0ZM9.09363 22.5447C10.0373 22.804 11.0151 22.9356 12.0001 22.9356C18.0301 22.9356 22.9356 18.0301 22.9356 11.9999C22.9356 5.96995 18.0301 1.06408 12.0001 1.06408C5.96995 1.06408 1.06425 5.96995 1.06425 11.9999C1.06425 14.5088 1.93561 16.9601 3.51767 18.9021C3.62209 19.0303 3.66123 19.1999 3.62291 19.3609L2.17141 25.4874L8.73663 22.5714C8.84894 22.5215 8.97507 22.512 9.09363 22.5447ZM12.0001 4.35763C16.1729 4.35763 19.5679 7.75263 19.5679 11.9254C19.5679 16.0986 16.1729 19.4934 12.0001 19.4934C7.82727 19.4934 4.43227 16.0986 4.43227 11.9254C4.43227 7.75263 7.82727 4.35763 12.0001 4.35763ZM5.49635 11.9258C5.49635 15.5117 8.41382 18.4293 12.0001 18.4293C15.586 18.4293 18.5036 15.5117 18.5036 11.9258C18.5036 8.33951 15.586 5.42188 12.0001 5.42188C8.41382 5.42188 5.49635 8.33951 5.49635 11.9258ZM20.2911 15.9343C20.0107 15.8445 19.7115 15.9986 19.6218 16.2785C19.1729 17.6772 17.9219 18.6406 16.9514 19.2023C16.6971 19.3497 16.6101 19.6751 16.7573 19.9293C16.856 20.0997 17.0346 20.1951 17.2184 20.1951C17.3088 20.1951 17.4004 20.1719 17.4843 20.1234C18.617 19.4679 20.0826 18.3249 20.6349 16.6036C20.7247 16.3238 20.5708 16.0241 20.2911 15.9343ZM14.9082 20.4948C15.0185 20.2225 15.3286 20.0913 15.6013 20.2016C15.8736 20.3123 16.0048 20.6224 15.8943 20.8947L15.8922 20.9003C15.8083 21.107 15.609 21.2325 15.3989 21.2325C15.3323 21.2325 15.2645 21.22 15.1991 21.1934C14.9266 21.0829 14.7955 20.7726 14.9059 20.5004L14.9082 20.4948ZM11.9843 15.3405C11.7269 15.3405 11.5199 15.4326 11.3639 15.6161C11.2076 15.8001 11.1297 16.0206 11.1297 16.2778C11.1297 16.5256 11.2076 16.7442 11.3639 16.9323C11.5201 17.1207 11.7269 17.2149 11.9843 17.2149C12.2411 17.2149 12.4617 17.1207 12.6457 16.9323C12.8292 16.7442 12.9213 16.5256 12.9213 16.2778C12.9213 16.0206 12.8292 15.8001 12.6457 15.6161C12.4617 15.4326 12.2411 15.3405 11.9843 15.3405ZM12.1496 7.00294C13.013 7.00294 13.702 7.22362 14.2167 7.66448C14.7313 8.10534 14.9883 8.66131 14.9883 9.33189C14.9883 9.56161 14.9534 9.78673 14.8837 10.0071C14.8143 10.2276 14.7403 10.4137 14.6614 10.5653C14.5826 10.7168 14.4665 10.887 14.3136 11.0751C14.1607 11.2636 14.0469 11.3946 13.9727 11.4679L13.6118 11.8124L13.3483 12.033C13.0359 12.2811 12.8428 12.5292 12.7697 12.777C12.6958 13.0252 12.6593 13.3837 12.6593 13.8521C12.6593 14.1828 12.4294 14.3483 11.9703 14.3483C11.7404 14.3483 11.5775 14.2938 11.4808 14.1846C11.3844 14.0758 11.3364 13.876 11.3364 13.5853C11.3364 12.6407 11.612 11.9234 12.1632 11.4328L12.5628 11.106C12.7741 10.9243 12.9326 10.7813 13.0384 10.6768C13.1438 10.5724 13.2497 10.418 13.3552 10.2136C13.461 10.0094 13.5138 9.79807 13.5138 9.58019C13.5138 9.20774 13.3855 8.91948 13.1291 8.71525C12.8728 8.51068 12.5296 8.40857 12.0991 8.40857C11.7972 8.40857 11.5454 8.45543 11.3441 8.54916C11.1425 8.64306 11.0052 8.7432 10.9321 8.84959C10.8587 8.95615 10.7694 9.05629 10.664 9.15002C10.5588 9.24392 10.4374 9.29062 10.3005 9.29062C10.1265 9.29062 9.96845 9.23323 9.82654 9.11828C9.68463 9.00367 9.61392 8.84055 9.61392 8.62908C9.61392 8.24331 9.84332 7.87578 10.3029 7.52652C10.762 7.17758 11.3777 7.00294 12.1496 7.00294Z" fill="black"/>
</svg>
