<svg width="24" height="24" viewBox="0 0 24 24" fill="none" xmlns="http://www.w3.org/2000/svg">
<path fill-rule="evenodd" clip-rule="evenodd" d="M21.5907 8.86633L23.4353 9.26733C23.7649 9.33911 24 9.6308 24 9.96808V14.0319C24 14.3692 23.7649 14.6609 23.4353 14.7327L21.5907 15.1337C21.4303 15.6248 21.2316 16.1038 20.9971 16.5652L22.0182 18.1536C22.2006 18.4374 22.1605 18.8101 21.9221 19.0485L19.0485 21.9221C18.8101 22.1607 18.4374 22.2006 18.1536 22.0182L16.5652 20.9971C16.1038 21.2316 15.6248 21.4303 15.1337 21.5907L14.7327 23.4353C14.6611 23.7649 14.3692 24 14.0319 24H9.96808C9.6308 24 9.33893 23.7649 9.26733 23.4353L8.86633 21.5907C8.37524 21.4303 7.89624 21.2316 7.43481 20.9971L5.84637 22.0182C5.56256 22.2006 5.18994 22.1605 4.95154 21.9221L2.07788 19.0485C1.83948 18.8101 1.79938 18.4374 1.98175 18.1536L3.00293 16.5652C2.76837 16.1038 2.5697 15.6248 2.4093 15.1337L0.564697 14.7327C0.235107 14.6609 0 14.3692 0 14.0319V9.96808C0 9.6308 0.235107 9.33911 0.564697 9.26733L2.4093 8.86633C2.5697 8.37524 2.76837 7.89624 3.00293 7.43481L1.98175 5.84637C1.79938 5.56256 1.83948 5.18994 2.07788 4.95154L4.95154 2.07788C5.18994 1.83948 5.56256 1.79938 5.84637 1.98175L7.43481 3.00293C7.89624 2.76837 8.37524 2.5697 8.86633 2.4093L9.26733 0.564697C9.33893 0.235107 9.6308 0 9.96808 0H14.0319C14.3692 0 14.6611 0.235107 14.7327 0.564697L15.1337 2.4093C15.6248 2.5697 16.1038 2.76837 16.5652 3.00293L18.1536 1.98175C18.4374 1.79938 18.8101 1.83948 19.0485 2.07788L21.9221 4.95154C22.1605 5.18994 22.2006 5.56256 22.0182 5.84637L20.9971 7.43481C21.2316 7.89624 21.4303 8.37524 21.5907 8.86633ZM20.8744 13.8215L22.5657 13.4539V10.5461L20.8742 10.1785C20.6144 10.1219 20.4073 9.92633 20.3359 9.67035C20.1498 9.00366 19.8827 8.35895 19.5412 7.75415C19.4105 7.52252 19.4187 7.23761 19.5626 7.01385L20.499 5.55707L18.4429 3.50079L16.9861 4.43738C16.7624 4.58112 16.4775 4.58936 16.2458 4.45862C15.6411 4.11731 14.9963 3.84998 14.3297 3.66412C14.0737 3.59271 13.8781 3.38544 13.8215 3.12561L13.4539 1.43427H10.5461L10.1785 3.12561C10.1219 3.38544 9.92633 3.59271 9.67035 3.66412C9.00366 3.84998 8.35895 4.11731 7.75397 4.45862C7.52252 4.58936 7.23761 4.5813 7.01385 4.43738L5.55688 3.50079L3.50079 5.55707L4.43738 7.01385C4.5813 7.23761 4.58936 7.52252 4.45862 7.75415C4.11731 8.35895 3.84998 9.00366 3.66412 9.67035C3.59271 9.92633 3.38544 10.1219 3.12561 10.1785L1.43427 10.5461V13.4539L3.12579 13.8215C3.38562 13.8781 3.59271 14.0737 3.66412 14.3297C3.85016 14.9963 4.11749 15.6411 4.4588 16.2458C4.58954 16.4775 4.5813 16.7624 4.43738 16.9861L3.50098 18.4429L5.55707 20.4992L7.01385 19.5626C7.23761 19.4189 7.52252 19.4106 7.75415 19.5414C8.35895 19.8827 9.00366 20.15 9.67035 20.3359C9.92633 20.4073 10.1219 20.6146 10.1785 20.8744L10.5461 22.5657H13.4539L13.8215 20.8744C13.8781 20.6146 14.0737 20.4073 14.3297 20.3359C14.9963 20.15 15.6411 19.8827 16.246 19.5414C16.4775 19.4106 16.7624 19.4187 16.9861 19.5626L18.4431 20.4992L20.4992 18.4429L19.5626 16.9861C19.4187 16.7624 19.4106 16.4775 19.5414 16.2458C19.8827 15.6411 20.15 14.9963 20.3359 14.3297C20.4073 14.0737 20.6146 13.8781 20.8744 13.8215ZM6.26294 12C6.26294 8.83667 8.83667 6.26294 12 6.26294C15.1633 6.26294 17.7371 8.83667 17.7371 12C17.7371 15.1633 15.1633 17.7371 12 17.7371C8.83667 17.7371 6.26294 15.1633 6.26294 12ZM7.6972 12C7.6972 14.3725 9.6275 16.3028 12 16.3028C14.3725 16.3028 16.3028 14.3725 16.3028 12C16.3028 9.6275 14.3725 7.6972 12 7.6972C9.6275 7.6972 7.6972 9.6275 7.6972 12Z" fill="black"/>
</svg>
