<svg width="27" height="24" viewBox="0 0 27 24" fill="none" xmlns="http://www.w3.org/2000/svg">
<path d="M26.7984 7.50686L25.1219 0.649714C25.0297 0.267428 24.6927 0 24.3088 0H2.51471C2.13079 0 1.79382 0.267428 1.70162 0.649714L0.0251471 7.50686C0.00838235 7.57371 0 7.644 0 7.71429C0 9.15086 0.665559 10.4177 1.67647 11.196V23.1429C1.67647 23.616 2.052 24 2.51471 24H10.8971C11.3598 24 11.7353 23.616 11.7353 23.1429V17.1429H15.0882V23.1429C15.0882 23.616 15.4638 24 15.9265 24H24.3088C24.7715 24 25.1471 23.616 25.1471 23.1429V11.196C26.158 10.4177 26.8235 9.15086 26.8235 7.71429C26.8235 7.644 26.8151 7.57371 26.7984 7.50686ZM23.4706 22.2857H16.7647V16.2857C16.7647 15.8126 16.3892 15.4286 15.9265 15.4286H10.8971C10.4344 15.4286 10.0588 15.8126 10.0588 16.2857V22.2857H3.35294V11.9314C3.55915 11.9674 3.76703 12 3.98162 12C5.25909 12 6.39574 11.3503 7.125 10.3423C7.85426 11.3503 8.99091 12 10.2684 12C11.5459 12 12.6825 11.3503 13.4118 10.3423C14.141 11.3503 15.2777 12 16.5551 12C17.8326 12 18.9693 11.3503 19.6985 10.3423C20.4278 11.3503 21.5644 12 22.8419 12C23.0565 12 23.2644 11.9674 23.4706 11.9314V22.2857ZM22.8419 10.2857C21.5711 10.2857 20.5368 9.132 20.5368 7.71429C20.5368 7.24114 20.1612 6.85714 19.6985 6.85714C19.2358 6.85714 18.8603 7.24114 18.8603 7.71429C18.8603 9.132 17.8259 10.2857 16.5551 10.2857C15.2844 10.2857 14.25 9.132 14.25 7.71429C14.25 7.24114 13.8745 6.85714 13.4118 6.85714C12.9491 6.85714 12.5735 7.24114 12.5735 7.71429C12.5735 9.132 11.5391 10.2857 10.2684 10.2857C8.99762 10.2857 7.96324 9.132 7.96324 7.71429C7.96324 7.24114 7.58771 6.85714 7.125 6.85714C6.66229 6.85714 6.28677 7.24114 6.28677 7.71429C6.28677 9.132 5.25238 10.2857 3.98162 10.2857C2.74103 10.2857 1.72509 9.18514 1.67815 7.81371L3.17021 1.71429H23.655L25.1471 7.81371C25.0984 9.18514 24.0825 10.2857 22.8419 10.2857Z" fill="black"/>
</svg>
