<svg width="50" height="52" viewBox="0 0 50 52" fill="none" xmlns="http://www.w3.org/2000/svg">
<path fill-rule="evenodd" clip-rule="evenodd" d="M0 0H42.1875V7.03125H49.2188V52H7.03125V44.7344H0V0ZM38.6719 3.51562H3.51562V41.2188H38.6719V3.51562ZM10.5469 44.7344V48.4844H45.7031V10.5469H42.1875V44.7344H10.5469ZM15.8203 5.03125C18.7281 5.03125 21.0938 7.39691 21.0938 10.3047C21.0938 13.2125 18.7281 15.5781 15.8203 15.5781C12.9125 15.5781 10.5469 13.2125 10.5469 10.3047C10.5469 7.39691 12.9125 5.03125 15.8203 5.03125ZM15.8203 15.5781C20.6666 15.5781 24.6094 19.5209 24.6094 24.3672V26.125H7.03125V24.3672C7.03125 19.5209 10.974 15.5781 15.8203 15.5781ZM14.0625 10.3047C14.0625 11.2739 14.8511 12.0625 15.8203 12.0625C16.7896 12.0625 17.5781 11.2739 17.5781 10.3047C17.5781 9.33543 16.7896 8.54688 15.8203 8.54688C14.8511 8.54688 14.0625 9.33543 14.0625 10.3047ZM15.8203 19.0938C13.5286 19.0938 11.5736 20.5632 10.848 22.6094H20.7926C20.0671 20.5632 18.112 19.0938 15.8203 19.0938ZM28.125 13.5781H35.1562V17.0938H28.125V13.5781ZM35.1562 6.54688H28.125V10.0625H35.1562V6.54688ZM28.125 20.6094H35.1562V24.125H28.125V20.6094ZM35.1562 31.1562V27.6406H7.03125V31.1562H35.1562ZM35.1562 34.6719V38.1875H7.03125V34.6719H35.1562Z" fill="black"/>
</svg>
