<svg width="50" height="41" viewBox="0 0 50 41" fill="none" xmlns="http://www.w3.org/2000/svg">
<path fill-rule="evenodd" clip-rule="evenodd" d="M43.4187 0H13.3789C9.74998 0 6.79764 2.95234 6.79764 6.58124V7.47069H6.58124C2.95234 7.47069 0 10.423 0 14.0519V14.9414V33.6042C0 37.2331 2.95234 40.1855 6.58134 40.1855H36.621C40.2499 40.1855 43.2024 37.2331 43.2024 33.6042V32.7148H43.4188C47.0477 32.7148 50 29.7624 50 26.1335V6.58124C49.9999 2.95234 47.0477 0 43.4187 0ZM40.2727 33.6042C40.2727 35.6177 38.6346 37.2558 36.621 37.2558H6.58134C4.56776 37.2558 2.92968 35.6177 2.92968 33.6042V24.9023H40.2727V33.6042ZM40.2727 21.9726H2.92968V17.8711H40.2727V21.9726ZM40.2727 14.9414H2.92968V14.0519C2.92968 12.0385 4.56776 10.4004 6.58134 10.4004H36.621C38.6345 10.4004 40.2727 12.0385 40.2727 14.0519V14.9414ZM47.0702 26.1335C47.0702 28.147 45.4322 29.7851 43.4187 29.7851H43.2023V14.0519C43.2023 10.423 40.2499 7.47069 36.6209 7.47069H9.72733V6.58124C9.72733 4.56776 11.3653 2.92968 13.3789 2.92968H43.4187C45.4321 2.92968 47.0702 4.56776 47.0702 6.58124V26.1335ZM7.09646 29.3945H19.9871V32.3242H7.09646V29.3945ZM36.1059 29.3945H30.7291V32.3242H36.1059V29.3945Z" fill="black"/>
</svg>
